<?xml version="1.0" standalone="no"?>
<!DOCTYPE svg PUBLIC "-//W3C//DTD SVG 20010904//EN"
 "http://www.w3.org/TR/2001/REC-SVG-20010904/DTD/svg10.dtd">
<svg version="1.0" xmlns="http://www.w3.org/2000/svg"
 width="946.000000pt" height="1270.000000pt" viewBox="0 0 946.000000 1270.000000"
 preserveAspectRatio="xMidYMid meet">

<g transform="translate(0.000000,1270.000000) scale(0.100000,-0.100000)"
fill="#000000" stroke="none">
<path d="M2835 10469 c-396 -243 -740 -455 -765 -473 -26 -18 -54 -50 -67 -76
l-23 -44 0 -3566 c0 -2361 4 -3577 10 -3601 15 -53 82 -123 148 -156 70 -34
174 -38 232 -9 19 10 327 178 685 375 710 389 726 400 761 502 18 52 19 106
19 1469 l0 1415 -21 46 c-71 153 -245 218 -384 144 -60 -33 -114 -96 -130
-153 -6 -25 -10 -477 -10 -1352 l0 -1315 -372 -205 c-204 -113 -375 -206 -380
-208 -4 -2 -8 1433 -8 3190 l1 3193 621 380 c342 209 632 388 645 398 38 30
64 93 64 154 0 48 -6 66 -47 137 -103 178 -122 196 -209 196 -49 0 -72 -13
-770 -441z"/>
<path d="M5825 10846 c-22 -7 -591 -340 -1265 -739 -908 -539 -1234 -737
-1262 -767 -71 -78 -68 -43 -68 -930 0 -898 -4 -850 77 -940 66 -74 111 -95
203 -95 57 0 84 5 115 22 23 12 501 303 1064 647 563 344 1028 626 1032 626 5
0 9 -157 9 -348 0 -320 -1 -350 -17 -364 -10 -8 -272 -174 -583 -368 -311
-194 -580 -367 -598 -384 -49 -45 -74 -101 -80 -176 -6 -86 21 -152 88 -214
80 -75 211 -97 301 -50 108 55 1301 813 1341 852 92 89 87 36 89 885 1 744 1
747 -21 791 -30 63 -97 121 -161 140 -67 20 -102 20 -164 -2 -36 -13 -1733
-1042 -2107 -1279 l-38 -23 0 437 0 438 1036 615 c570 338 1048 621 1063 628
26 13 44 2 536 -306 l510 -320 2 -1219 3 -1218 -1186 -725 c-652 -399 -1202
-740 -1221 -759 -20 -19 -45 -55 -57 -80 -21 -46 -21 -46 -24 -1366 l-2 -1320
-592 -325 c-634 -349 -661 -366 -692 -457 -64 -186 67 -367 265 -366 49 0 77
6 115 25 27 14 337 183 689 377 549 302 647 359 687 402 84 88 78 -16 78 1459
l0 1306 1177 720 c648 395 1197 737 1221 759 24 21 53 57 65 80 l22 40 0 1445
0 1445 -27 50 c-14 28 -37 60 -50 71 -26 25 -1298 824 -1369 861 -57 30 -147
38 -204 19z"/>
</g>
</svg>
