<?xml version="1.0" encoding="UTF-8"?>
<!DOCTYPE svg PUBLIC "-//W3C//DTD SVG 1.1//EN" "http://www.w3.org/Graphics/SVG/1.1/DTD/svg11.dtd">
<!-- Creator: CorelDRAW Home & Student X8 -->
<svg xmlns="http://www.w3.org/2000/svg" xml:space="preserve" width="8.4666mm" height="14.0541mm" version="1.1" style="shape-rendering:geometricPrecision; text-rendering:geometricPrecision; image-rendering:optimizeQuality; fill-rule:evenodd; clip-rule:evenodd"
viewBox="0 0 82081 136250"
 xmlns:xlink="http://www.w3.org/1999/xlink">
 <defs>
  <style type="text/css">
   <![CDATA[
    .fil0 {fill:#323232}
   ]]>
  </style>
 </defs>
 <g id="Capa_x0020_1">
  <metadata id="CorelCorpID_0Corel-Layer"/>
  <path class="fil0" d="M8218 18976l0 92629c0,87 34,1146 6,2620l11260 -6212 13 -38603c1,-2263 1850,-4045 4109,-3960l1 0c2259,84 4107,2004 4106,4266l-13 40538c0,418 -63,820 -181,1197 -252,1068 -937,2031 -1978,2605l-19325 10662c-1739,959 -3914,529 -5183,-917 -631,-529 -1034,-1318 -1034,-2196l0 -105750c0,-1372 1153,-2114 2287,-2810l20693 -12689c1138,-697 2628,-335 3310,803l1439 2404c831,1388 378,3219 -1009,4069l-18501 11344zm9562 115186l0 0c1129,1957 3673,2666 5653,1573l19325 -10661c595,-328 1073,-783 1421,-1311 460,-648 732,-1444 732,-2310l13 -38517 35130 -21483c450,-276 831,-627 1136,-1028l4 -5 2 -2c546,-679 873,-1545 873,-2496l13 -40538c0,-130 -6,-260 -19,-389 -13,-1325 -680,-2615 -1890,-3374l-18696 -11730c-143,-89 -289,-168 -437,-238 -1279,-985 -3079,-1151 -4553,-277l-35854 21268c-1444,857 -2183,2482 -2003,4063l-11 21886c-1,1105 441,2124 1156,2881 1252,1496 3435,1893 5161,837l30929 -18914 -5 10622 -17166 10767c-1914,1202 -2468,3732 -1230,5622l0 0c1238,1891 3818,2455 5733,1254l18696 -11729c333,-209 625,-459 874,-739 803,-733 1307,-1790 1308,-2970l11 -19588 0 -43c139,-916 -15,-1879 -506,-2729l0 -1c-1130,-1958 -3633,-2594 -5562,-1414l-31179 19066 6 -13001 31664 -18783 15357 9632 -13 36249 -35101 21465c-296,181 -561,393 -794,632 -769,720 -1249,1747 -1249,2900l-14 38424 -17371 9585c-1979,1092 -2674,3586 -1544,5544z"/>
 </g>
</svg>
