<?xml version="1.0" encoding="UTF-8"?>
<!DOCTYPE svg PUBLIC "-//W3C//DTD SVG 1.1//EN" "http://www.w3.org/Graphics/SVG/1.1/DTD/svg11.dtd">
<!-- Creator: CorelDRAW Home & Student X8 -->
<svg xmlns="http://www.w3.org/2000/svg" xml:space="preserve" width="8.4667mm" height="14.0538mm" version="1.1" style="shape-rendering:geometricPrecision; text-rendering:geometricPrecision; image-rendering:optimizeQuality; fill-rule:evenodd; clip-rule:evenodd"
viewBox="0 0 2715341 4507171"
 xmlns:xlink="http://www.w3.org/1999/xlink">
 <defs>
  <style type="text/css">
   <![CDATA[
    .fil0 {fill:white}
   ]]>
  </style>
 </defs>
 <g id="Capa_x0020_1">
  <metadata id="CorelCorpID_0Corel-Layer"/>
  <path class="fil0" d="M271864 627754l0 3064176c0,2887 1123,37876 225,86656l372471 -205478 417 -1277029c32,-74853 61191,-133799 135916,-130977l32 0c74757,2758 135884,66258 135852,141112l-449 1340977c0,13855 -2085,27132 -5965,39608 -8339,35342 -31013,67188 -65457,86206l-639268 352683c-57535,31718 -129470,17511 -171450,-30339 -20879,-17478 -34188,-43584 -34188,-72640l0 -3498223c0,-45380 38100,-69914 75623,-92941l684552 -419743c37651,-23091 86912,-11096 109490,26587l47593 79503c27485,45894 12508,106476 -33354,134570l-612040 375292zm316315 3810336l0 0c37363,64751 121516,88163 187005,52051l639268 -352683c19692,-10840 35470,-25881 47016,-43360 15234,-21423 24245,-47753 24245,-76424l417 -1274142 1162119 -710658c14881,-9108 27485,-20718 37555,-33995l160 -161 32 -64c18088,-22449 28896,-51121 28896,-82582l449 -1340978c0,-4329 -224,-8627 -609,-12892 -481,-43809 -22514,-86463 -62538,-111607l-618486 -387993c-4715,-2950 -9557,-5580 -14496,-7921 -42270,-32552 -101825,-38068 -150605,-9140l-1186043 703537c-47786,28351 -72224,82102 -66259,134409l-385 723967c-32,36593 14593,70268 38261,95315 41403,49485 113627,62634 170713,27709l1023188 -625670 -193 351336 -567846 356211c-63340,39736 -81652,123441 -40698,185979l0 0c40955,62538 126295,81203 189635,41467l618486 -387993c11033,-6927 20686,-15169 28928,-24438 26555,-24277 43232,-59235 43264,-98265l352 -647959 0 -1411c4619,-30307 -481,-62185 -16709,-90279l-32 -32c-37394,-64784 -120169,-85822 -184022,-46792l-1031398 630705 224 -430102 1047466 -621340 507970 318656 -385 1199128 -1161189 710048c-9781,5966 -18537,13021 -26266,20879 -25432,23828 -41307,57823 -41307,95956l-449 1271095 -574645 317052c-65489,36112 -88484,118630 -51089,183381z"/>
 </g>
</svg>
