<?xml version="1.0" standalone="no"?>
<!DOCTYPE svg PUBLIC "-//W3C//DTD SVG 20010904//EN"
 "http://www.w3.org/TR/2001/REC-SVG-20010904/DTD/svg10.dtd">
<svg version="1.0" xmlns="http://www.w3.org/2000/svg"
 width="946.000000pt" height="1270.000000pt" viewBox="0 0 946.000000 1270.000000"
 preserveAspectRatio="xMidYMid meet">

<g transform="translate(0.000000,1270.000000) scale(0.100000,-0.100000)"
fill="#000000" stroke="none">
<path d="M3306 12689 c-407 -24 -788 -125 -1161 -309 -302 -148 -544 -321
-794 -565 -718 -700 -1175 -1768 -1306 -3050 -48 -476 -48 -1028 1 -1545 144
-1529 718 -3121 1592 -4410 990 -1461 2310 -2458 3613 -2729 480 -99 944 -101
1379 -4 914 202 1671 808 2172 1738 366 681 582 1506 639 2444 15 249 6 874
-15 1111 -114 1234 -442 2380 -1002 3490 -353 702 -743 1285 -1242 1860 -151
174 -500 525 -669 672 -1031 902 -2160 1358 -3207 1297z m345 -1780 c50 -17
74 -43 140 -152 88 -145 95 -203 39 -295 -24 -38 17 -12 -719 -462 l-580 -355
-1 -3194 0 -3193 22 14 c13 8 182 102 375 208 l353 194 2 1326 c3 1485 -3
1361 76 1443 105 109 263 115 377 15 25 -22 58 -64 73 -92 l27 -51 3 -1395 c2
-1026 0 -1410 -8 -1450 -14 -63 -46 -123 -87 -161 -22 -21 -1134 -641 -1353
-755 -74 -38 -182 -41 -250 -5 -57 29 -116 85 -141 133 -19 36 -19 110 -19
3623 0 3072 2 3590 14 3613 8 15 29 41 48 59 37 35 1478 922 1518 934 36 11
53 10 91 -2z m2381 -82 c94 -49 1328 -825 1361 -856 16 -14 41 -46 55 -71 l27
-45 0 -1450 0 -1450 -22 -40 c-12 -23 -41 -59 -65 -80 -23 -22 -573 -364
-1220 -760 l-1178 -719 0 -1311 c0 -1478 6 -1365 -79 -1455 -39 -42 -144 -103
-719 -420 -418 -230 -690 -374 -720 -381 -90 -20 -176 6 -253 77 -59 56 -84
116 -83 199 1 76 32 143 88 191 22 20 304 181 626 358 l585 323 5 1329 5 1329
28 47 c15 26 44 61 65 78 20 17 566 354 1212 749 l1175 718 3 1215 2 1215
-502 315 c-277 173 -509 318 -516 322 -8 5 -405 -225 -1072 -621 l-1060 -628
0 -432 c0 -238 2 -433 3 -433 2 0 476 289 1053 642 577 353 1065 647 1084 654
43 16 134 16 177 1 65 -24 119 -73 149 -133 l29 -59 0 -745 0 -745 -23 -46
c-12 -25 -44 -66 -70 -91 -41 -40 -1149 -746 -1322 -842 -49 -27 -64 -31 -135
-31 -70 0 -87 4 -133 29 -94 52 -143 135 -143 241 0 69 16 116 57 170 18 24
205 147 620 407 l594 373 0 353 0 353 -21 -12 c-12 -6 -483 -293 -1048 -639
-564 -345 -1043 -633 -1065 -640 -49 -16 -140 -9 -191 15 -55 27 -112 87 -141
148 l-24 52 0 815 0 815 24 50 c13 28 39 64 57 82 35 33 2451 1471 2504 1491
17 6 58 11 92 11 51 1 72 -5 125 -32z"/>
</g>
</svg>
